# xmcd CD database file
# Generated: ÷ÔÒ ïËÔ 1 19:01:54 2002 by KSCD
# 
# Track frame offsets:
#       150
#       18092
#       35032
#       53972
#       78470
#       102440
#       122325
#       139707
#       169382
#       186270
#       204360
#       220285
#       238030
#       249297
#       266315
#       286732
#       294965
#       309950
#
# Disc length: 4340 seconds
#
# Revision: 1
# Processed by: cddbd v1.4PL0 Copyright (c) Steve Scherf et al.
# Submitted via: Kscd 1.3.3
#
DISCID=f810f212
DTITLE=Janis Joplin - I Got Dem Ol'Kozmic Blues Again, Mama - Pearl
DYEAR=1900
DGENRE=
TTITLE0=Try (Just A Little Bit Harder)
TTITLE1=Maybe
TTITLE2=One Good Man
TTITLE3=As Good As You've Been To This World
TTITLE4=To Love Somebody
TTITLE5=Kozmic Blues
TTITLE6=Little Girl Blue
TTITLE7=Work Me, Lord
TTITLE8=Move Over
TTITLE9=Cry Baby
TTITLE10=A Woman Left Lonely
TTITLE11=Half Moon
TTITLE12=Buried Alive In The Blues
TTITLE13=My Baby
TTITLE14=Me And Bobby McGee
TTITLE15=Mersedes Benz
TTITLE16=Trust Me
TTITLE17=Get It While You Can
EXTD=
EXTT0=
EXTT1=
EXTT2=
EXTT3=
EXTT4=
EXTT5=
EXTT6=
EXTT7=
EXTT8=
EXTT9=
EXTT10=
EXTT11=
EXTT12=
EXTT13=
EXTT14=
EXTT15=
EXTT16=
EXTT17=
PLAYORDER=
